# Blender 4.1.1
# www.blender.org
mtllib model.mtl
o Cube
v -0.247228 -1.055327 0.247227
v -0.247228 -0.247228 1.055327
v -1.055327 -0.247228 0.247228
v -0.233792 -0.895882 0.615382
v -0.615382 -0.895882 0.233792
v -0.572747 -0.761499 0.572747
v -0.615382 -0.233792 0.895882
v -0.233792 -0.615382 0.895882
v -0.572747 -0.572747 0.761499
v -0.895882 -0.615382 0.233792
v -0.895882 -0.233792 0.615382
v -0.761499 -0.572747 0.572747
v -0.247228 0.247228 1.055327
v -0.247228 1.055327 0.247227
v -1.055327 0.247228 0.247228
v -0.233792 0.615382 0.895882
v -0.615382 0.233792 0.895882
v -0.572747 0.572747 0.761499
v -0.615382 0.895882 0.233792
v -0.233792 0.895882 0.615382
v -0.572747 0.761499 0.572747
v -0.895882 0.233792 0.615382
v -0.895882 0.615382 0.233792
v -0.761499 0.572747 0.572747
v -0.247228 -1.055327 -0.247228
v -1.055327 -0.247228 -0.247228
v -0.247228 -0.247228 -1.055327
v -0.615382 -0.895882 -0.233792
v -0.233792 -0.895882 -0.615382
v -0.572747 -0.761499 -0.572747
v -0.895882 -0.233792 -0.615382
v -0.895882 -0.615382 -0.233792
v -0.761499 -0.572747 -0.572747
v -0.233792 -0.615382 -0.895882
v -0.615382 -0.233792 -0.895882
v -0.572747 -0.572747 -0.761499
v -0.247228 1.055327 -0.247228
v -0.247228 0.247228 -1.055327
v -1.055327 0.247228 -0.247228
v -0.233792 0.895882 -0.615382
v -0.615382 0.895882 -0.233792
v -0.572747 0.761499 -0.572747
v -0.615382 0.233792 -0.895882
v -0.233792 0.615382 -0.895882
v -0.572747 0.572747 -0.761499
v -0.895882 0.615382 -0.233792
v -0.895882 0.233792 -0.615382
v -0.761499 0.572747 -0.572747
v 0.247227 -1.055327 0.247227
v 1.055327 -0.247228 0.247228
v 0.247228 -0.247228 1.055327
v 0.615382 -0.895882 0.233792
v 0.233792 -0.895882 0.615382
v 0.572747 -0.761499 0.572747
v 0.895882 -0.233792 0.615382
v 0.895882 -0.615382 0.233792
v 0.761499 -0.572747 0.572747
v 0.233792 -0.615382 0.895882
v 0.615382 -0.233792 0.895882
v 0.572747 -0.572747 0.761499
v 0.247227 1.055327 0.247227
v 0.247228 0.247228 1.055327
v 1.055327 0.247228 0.247228
v 0.233792 0.895882 0.615382
v 0.615382 0.895882 0.233792
v 0.572747 0.761499 0.572747
v 0.615382 0.233792 0.895882
v 0.233792 0.615382 0.895882
v 0.572747 0.572747 0.761499
v 0.895882 0.615382 0.233792
v 0.895882 0.233792 0.615382
v 0.761499 0.572747 0.572747
v 0.247227 -1.055327 -0.247228
v 0.247228 -0.247228 -1.055327
v 1.055327 -0.247228 -0.247228
v 0.233792 -0.895882 -0.615382
v 0.615382 -0.895882 -0.233792
v 0.572747 -0.761499 -0.572747
v 0.615382 -0.233792 -0.895882
v 0.233792 -0.615382 -0.895882
v 0.572747 -0.572747 -0.761499
v 0.895882 -0.615382 -0.233792
v 0.895882 -0.233792 -0.615382
v 0.761499 -0.572747 -0.572747
v 0.247227 1.055327 -0.247228
v 1.055327 0.247228 -0.247228
v 0.247228 0.247228 -1.055327
v 0.615382 0.895882 -0.233792
v 0.233792 0.895882 -0.615382
v 0.572747 0.761499 -0.572747
v 0.895882 0.233792 -0.615382
v 0.895882 0.615382 -0.233792
v 0.761499 0.572747 -0.572747
v 0.233792 0.615382 -0.895882
v 0.615382 0.233792 -0.895882
v 0.572747 0.572747 -0.761499
vn -0.0000 -0.0000 1.0000
vn 1.0000 -0.0000 -0.0000
vn -0.0000 1.0000 -0.0000
vn -1.0000 -0.0000 -0.0000
vn -0.0000 -0.0000 -1.0000
vn -0.3804 -0.8429 0.3804
vn -0.3464 -0.6633 0.6633
vn -0.3804 -0.3804 0.8429
vn -0.6633 -0.3464 0.6633
vn -0.8429 -0.3804 0.3804
vn -0.6633 -0.6633 0.3464
vn -0.5774 -0.5774 0.5774
vn -0.3804 0.3804 0.8429
vn -0.3464 0.6633 0.6633
vn -0.3804 0.8429 0.3804
vn -0.6633 0.6633 0.3464
vn -0.8429 0.3804 0.3804
vn -0.6633 0.3464 0.6633
vn -0.5774 0.5773 0.5774
vn -0.3804 -0.8429 -0.3804
vn -0.6633 -0.6633 -0.3464
vn -0.8429 -0.3804 -0.3804
vn -0.6633 -0.3464 -0.6633
vn -0.3804 -0.3804 -0.8429
vn -0.3464 -0.6633 -0.6633
vn -0.5773 -0.5774 -0.5774
vn -0.3804 0.8429 -0.3804
vn -0.3464 0.6633 -0.6633
vn -0.3804 0.3804 -0.8429
vn -0.6633 0.3464 -0.6633
vn -0.8429 0.3804 -0.3804
vn -0.6633 0.6633 -0.3464
vn -0.5774 0.5774 -0.5774
vn 0.3804 -0.8429 0.3804
vn 0.6633 -0.6633 0.3464
vn 0.8429 -0.3804 0.3804
vn 0.6633 -0.3464 0.6633
vn 0.3804 -0.3804 0.8429
vn 0.3464 -0.6633 0.6633
vn 0.5773 -0.5774 0.5774
vn 0.3804 0.8429 0.3804
vn 0.3464 0.6633 0.6633
vn 0.3804 0.3804 0.8429
vn 0.6633 0.3464 0.6633
vn 0.8429 0.3804 0.3804
vn 0.6633 0.6633 0.3464
vn 0.5774 0.5774 0.5774
vn 0.3804 -0.8429 -0.3804
vn 0.3464 -0.6633 -0.6633
vn 0.3804 -0.3804 -0.8429
vn 0.6633 -0.3464 -0.6633
vn 0.8429 -0.3804 -0.3804
vn 0.6633 -0.6633 -0.3464
vn 0.5774 -0.5774 -0.5774
vn 0.3804 0.8429 -0.3804
vn 0.6633 0.6633 -0.3464
vn 0.8429 0.3804 -0.3804
vn 0.6633 0.3464 -0.6633
vn 0.3804 0.3804 -0.8429
vn 0.3464 0.6633 -0.6633
vn 0.5773 0.5774 -0.5774
vn -0.3974 -0.9176 -0.0000
vn -0.7071 -0.7071 -0.0000
vn -0.9176 -0.3974 -0.0000
vn -0.3974 -0.0000 0.9176
vn -0.7071 -0.0000 0.7071
vn -0.9176 -0.0000 0.3974
vn -0.3974 0.9176 -0.0000
vn -0.7071 0.7071 -0.0000
vn -0.9176 0.3974 -0.0000
vn -0.3974 -0.0000 -0.9176
vn -0.7071 -0.0000 -0.7071
vn -0.9176 -0.0000 -0.3974
vn -0.0000 -0.9176 -0.3974
vn -0.0000 -0.7071 -0.7071
vn -0.0000 -0.3974 -0.9176
vn -0.0000 0.9176 -0.3974
vn -0.0000 0.7071 -0.7071
vn -0.0000 0.3974 -0.9176
vn 0.9176 -0.0000 -0.3974
vn 0.7071 -0.0000 -0.7071
vn 0.3974 -0.0000 -0.9176
vn 0.3974 -0.9176 -0.0000
vn 0.7071 -0.7071 -0.0000
vn 0.9176 -0.3974 -0.0000
vn 0.3974 0.9176 -0.0000
vn 0.7071 0.7071 -0.0000
vn 0.9176 0.3974 -0.0000
vn 0.3974 -0.0000 0.9176
vn 0.7071 -0.0000 0.7071
vn 0.9176 -0.0000 0.3974
vn -0.0000 -0.9176 0.3974
vn -0.0000 -0.7071 0.7071
vn -0.0000 -0.3974 0.9176
vn -0.0000 0.9176 0.3974
vn -0.0000 0.7071 0.7071
vn -0.0000 0.3974 0.9176
vn -0.0000 -1.0000 -0.0000
vt 0.470717 0.845717
vt 0.529283 0.845717
vt 0.529283 0.904283
vt 0.470717 0.904283
vt 0.470717 0.595717
vt 0.529283 0.595717
vt 0.529283 0.654283
vt 0.470717 0.654283
vt 0.720717 0.595717
vt 0.779283 0.595717
vt 0.779283 0.654283
vt 0.720717 0.654283
vt 0.470717 0.095717
vt 0.529283 0.095717
vt 0.529283 0.154283
vt 0.470717 0.154283
vt 0.470717 0.345717
vt 0.529283 0.345717
vt 0.529283 0.404283
vt 0.470717 0.404283
vt 0.220717 0.654283
vt 0.220717 0.702079
vt 0.174944 0.700056
vt 0.172921 0.654283
vt 0.220717 0.750000
vt 0.174944 0.750000
vt 0.470717 1.000000
vt 0.375000 0.950056
vt 0.375000 0.904283
vt 0.470717 0.000000
vt 0.470717 0.047921
vt 0.375000 0.049944
vt 0.375000 0.000000
vt 0.375000 0.095717
vt 0.125000 0.654283
vt 0.125000 0.700056
vt 0.577079 0.904283
vt 0.575056 1.000000
vt 0.529283 1.000000
vt 0.625000 0.904283
vt 0.625000 1.000000
vt 0.875000 0.654283
vt 0.875000 0.700056
vt 0.779283 0.750000
vt 0.625000 0.095717
vt 0.577079 0.095717
vt 0.575056 0.049944
vt 0.625000 0.049944
vt 0.529283 0.047921
vt 0.529283 0.000000
vt 0.575056 0.000000
vt 0.220717 0.595717
vt 0.172921 0.595717
vt 0.174944 0.549944
vt 0.220717 0.547921
vt 0.125000 0.595717
vt 0.125000 0.549944
vt 0.470717 0.202079
vt 0.375000 0.200056
vt 0.375000 0.154283
vt 0.470717 0.297921
vt 0.375000 0.299944
vt 0.375000 0.345717
vt 0.220717 0.500000
vt 0.174944 0.500000
vt 0.779283 0.500000
vt 0.875000 0.549944
vt 0.875000 0.595717
vt 0.625000 0.345717
vt 0.577079 0.345717
vt 0.575056 0.299944
vt 0.625000 0.250000
vt 0.529283 0.297921
vt 0.529283 0.202079
vt 0.575056 0.200056
vt 0.577079 0.154283
vt 0.625000 0.154283
vt 0.625000 0.200056
vt 0.575056 0.224791
vt 0.279283 0.654283
vt 0.327079 0.654283
vt 0.325056 0.700056
vt 0.279283 0.702079
vt 0.422921 0.654283
vt 0.424944 0.700056
vt 0.470717 0.702079
vt 0.470717 0.797921
vt 0.375000 0.799944
vt 0.375000 0.845717
vt 0.279283 0.750000
vt 0.325056 0.750000
vt 0.349791 0.700056
vt 0.720717 0.750000
vt 0.674944 0.750000
vt 0.672921 0.654283
vt 0.625000 0.845717
vt 0.577079 0.845717
vt 0.575056 0.799944
vt 0.625000 0.799944
vt 0.529283 0.797921
vt 0.529283 0.702079
vt 0.575056 0.700056
vt 0.577079 0.654283
vt 0.575056 0.775209
vt 0.279283 0.595717
vt 0.279283 0.547921
vt 0.325056 0.549944
vt 0.327079 0.595717
vt 0.279283 0.500000
vt 0.325056 0.500000
vt 0.470717 0.452079
vt 0.375000 0.450056
vt 0.375000 0.404283
vt 0.470717 0.547921
vt 0.424944 0.549944
vt 0.422921 0.595717
vt 0.349791 0.549944
vt 0.672921 0.595717
vt 0.674944 0.500000
vt 0.720717 0.500000
vt 0.577079 0.595717
vt 0.575056 0.549944
vt 0.529283 0.547921
vt 0.529283 0.452079
vt 0.575056 0.450056
vt 0.577079 0.404283
vt 0.625000 0.404283
vt 0.625000 0.450056
vt 0.575056 0.474791
s 0
f 51/1/1 62/2/1 13/3/1 2/4/1
f 75/5/2 86/6/2 63/7/2 50/8/2
f 85/9/3 37/10/3 14/11/3 61/12/3
f 3/13/4 15/14/4 39/15/4 26/16/4
f 27/17/5 38/18/5 87/19/5 74/20/5
f 1/21/6 4/22/6 6/23/6 5/24/6
f 4/22/7 8/25/7 9/26/7 6/23/7
f 2/4/8 7/27/8 9/28/8 8/29/8
f 7/30/9 11/31/9 12/32/9 9/33/9
f 3/13/10 10/34/10 12/32/10 11/31/10
f 10/35/11 5/24/11 6/23/11 12/36/11
f 6/23/12 9/26/12 12/36/12
f 13/3/13 16/37/13 18/38/13 17/39/13
f 16/37/14 20/40/14 21/41/14 18/38/14
f 14/11/15 19/42/15 21/43/15 20/44/15
f 19/45/16 23/46/16 24/47/16 21/48/16
f 15/14/17 22/49/17 24/47/17 23/46/17
f 22/49/18 17/50/18 18/51/18 24/47/18
f 18/51/19 21/48/19 24/47/19
f 25/52/20 28/53/20 30/54/20 29/55/20
f 28/53/21 32/56/21 33/57/21 30/54/21
f 26/16/22 31/58/22 33/59/22 32/60/22
f 31/58/23 35/61/23 36/62/23 33/59/23
f 27/17/24 34/63/24 36/62/24 35/61/24
f 34/64/25 29/55/25 30/54/25 36/65/25
f 30/54/26 33/57/26 36/65/26
f 37/10/27 40/66/27 42/67/27 41/68/27
f 40/69/28 44/70/28 45/71/28 42/72/28
f 38/18/29 43/73/29 45/71/29 44/70/29
f 43/73/30 47/74/30 48/75/30 45/71/30
f 39/15/31 46/76/31 48/75/31 47/74/31
f 46/76/32 41/77/32 42/78/32 48/75/32
f 42/78/33 45/79/33 48/75/33
f 49/80/34 52/81/34 54/82/34 53/83/34
f 52/81/35 56/84/35 57/85/35 54/82/35
f 50/8/36 55/86/36 57/85/36 56/84/36
f 55/86/37 59/87/37 60/88/37 57/85/37
f 51/1/38 58/89/38 60/88/38 59/87/38
f 58/90/39 53/83/39 54/82/39 60/91/39
f 54/82/40 57/92/40 60/91/40
f 61/12/41 64/93/41 66/94/41 65/95/41
f 64/96/42 68/97/42 69/98/42 66/99/42
f 62/2/43 67/100/43 69/98/43 68/97/43
f 67/100/44 71/101/44 72/102/44 69/98/44
f 63/7/45 70/103/45 72/102/45 71/101/45
f 70/103/46 65/95/46 66/94/46 72/102/46
f 66/99/47 69/98/47 72/104/47
f 73/105/48 76/106/48 78/107/48 77/108/48
f 76/106/49 80/109/49 81/110/49 78/107/49
f 74/20/50 79/111/50 81/112/50 80/113/50
f 79/111/51 83/114/51 84/115/51 81/112/51
f 75/5/52 82/116/52 84/115/52 83/114/52
f 82/116/53 77/108/53 78/107/53 84/115/53
f 78/107/54 81/110/54 84/117/54
f 85/9/55 88/118/55 90/119/55 89/120/55
f 88/118/56 92/121/56 93/122/56 90/119/56
f 86/6/57 91/123/57 93/122/57 92/121/57
f 91/123/58 95/124/58 96/125/58 93/122/58
f 87/19/59 94/126/59 96/125/59 95/124/59
f 94/126/60 89/127/60 90/128/60 96/125/60
f 90/128/61 93/129/61 96/125/61
f 25/52/62 1/21/62 5/24/62 28/53/62
f 28/53/63 5/24/63 10/35/63 32/56/63
f 32/60/64 10/34/64 3/13/64 26/16/64
f 2/4/65 13/3/65 17/39/65 7/27/65
f 7/30/66 17/50/66 22/49/66 11/31/66
f 11/31/67 22/49/67 15/14/67 3/13/67
f 14/11/68 37/10/68 41/68/68 19/42/68
f 19/45/69 41/77/69 46/76/69 23/46/69
f 23/46/70 46/76/70 39/15/70 15/14/70
f 38/18/71 27/17/71 35/61/71 43/73/71
f 43/73/72 35/61/72 31/58/72 47/74/72
f 47/74/73 31/58/73 26/16/73 39/15/73
f 73/105/74 25/52/74 29/55/74 76/106/74
f 76/106/75 29/55/75 34/64/75 80/109/75
f 80/113/76 34/63/76 27/17/76 74/20/76
f 37/10/77 85/9/77 89/120/77 40/66/77
f 40/69/78 89/127/78 94/126/78 44/70/78
f 44/70/79 94/126/79 87/19/79 38/18/79
f 86/6/80 75/5/80 83/114/80 91/123/80
f 91/123/81 83/114/81 79/111/81 95/124/81
f 95/124/82 79/111/82 74/20/82 87/19/82
f 49/80/83 73/105/83 77/108/83 52/81/83
f 52/81/84 77/108/84 82/116/84 56/84/84
f 56/84/85 82/116/85 75/5/85 50/8/85
f 85/9/86 61/12/86 65/95/86 88/118/86
f 88/118/87 65/95/87 70/103/87 92/121/87
f 92/121/88 70/103/88 63/7/88 86/6/88
f 62/2/89 51/1/89 59/87/89 67/100/89
f 67/100/90 59/87/90 55/86/90 71/101/90
f 71/101/91 55/86/91 50/8/91 63/7/91
f 1/21/92 49/80/92 53/83/92 4/22/92
f 4/22/93 53/83/93 58/90/93 8/25/93
f 8/29/94 58/89/94 51/1/94 2/4/94
f 61/12/95 14/11/95 20/44/95 64/93/95
f 64/96/96 20/40/96 16/37/96 68/97/96
f 68/97/97 16/37/97 13/3/97 62/2/97
f 25/52/98 73/105/98 49/80/98 1/21/98
